<svg xmlns="http://www.w3.org/2000/svg" width="32" height="32">
    <path fill="#95E1D3" fill-rule="evenodd" d="M16 31.998c-8.836 0-16-7.163-16-16.001C0 7.162 7.164-.002 16-.002c8.837 0 16 7.164 16 15.999 0 8.838-7.163 16.001-16 16.001zm0-29c-7.18 0-13 5.82-13 12.999 0 7.181 5.82 13.001 13 13.001s13-5.82 13-13.001c0-7.179-5.82-12.999-13-12.999zm0 22.499a9.5 9.5 0 1 1 0-18.999 9.5 9.5 0 0 1 0 18.999zm0-15.999a6.502 6.502 0 0 0 0 13.001 6.502 6.502 0 0 0 0-13.001zm0 9.5a3 3 0 1 1 0-6 3 3 0 0 1 0 6z"/>
</svg>
