<svg xmlns="http://www.w3.org/2000/svg" width="21.317" height="21.317">
    <path fill="#95E1D3" fill-rule="evenodd" d="M14 16.015H2a2 2 0 0 1-2-2v-12a2 2 0 0 1 2-2h12a2 2 0 0 1 2 2v12a2 2 0 0 1-2 2zm-6-11.1c-1.247 0-2.32.738-2.811 1.8h-.003l-.014.034a3.234 3.234 0 0 0-.08.201c-.012.033-.025.064-.036.098-.023.069-.042.14-.059.212-.009.033-.019.066-.026.1a2.45 2.45 0 0 0-.038.23l-.015.093a3.1 3.1 0 1 0 6.164 0l-.014-.093a3.34 3.34 0 0 0-.039-.23c-.007-.034-.017-.067-.026-.1a2.873 2.873 0 0 0-.059-.212c-.011-.034-.024-.065-.036-.098a3.234 3.234 0 0 0-.08-.201l-.014-.034h-.003A3.097 3.097 0 0 0 8 4.915zm6.2-2.3a.8.8 0 0 0-.8-.8h-1.6a.8.8 0 0 0-.8.8v1.6a.8.8 0 0 0 .8.8h1.6a.8.8 0 0 0 .8-.8v-1.6zm0 4.1h-1.475a4.9 4.9 0 1 1-9.45 0H1.8v6.7a.8.8 0 0 0 .8.8h10.8a.8.8 0 0 0 .8-.8v-6.7z"/>
</svg>
