<svg xmlns="http://www.w3.org/2000/svg" width="42.671" height="41.348">
    <path fill="#95E1D3" fill-rule="evenodd" d="M30.74 9.503a15.723 15.723 0 0 0-8.243-8.243c1-.787 2.258-1.26 3.629-1.26A5.874 5.874 0 0 1 32 5.874a5.846 5.846 0 0 1-1.26 3.629zM30.5 16c0 3.852-1.512 7.343-3.963 9.94l2.029 2.028a1.483 1.483 0 1 1-2.098 2.097l-2.178-2.178A14.426 14.426 0 0 1 16 30.5c-3.079 0-5.928-.966-8.276-2.603L5.561 30.06a1.5 1.5 0 0 1-2.122-2.121l2.012-2.011C3.008 23.332 1.5 19.846 1.5 16 1.5 7.992 7.992 1.5 16 1.5S30.5 7.992 30.5 16zM16 4.5C9.649 4.5 4.5 9.648 4.5 16c0 6.351 5.149 11.5 11.5 11.5S27.5 22.351 27.5 16c0-6.352-5.149-11.5-11.5-11.5zm6 13h-6a1.5 1.5 0 0 1-1.5-1.5V8a1.5 1.5 0 0 1 3 0v6.499H22a1.5 1.5 0 0 1 0 3.001zM1.287 9.706A5.968 5.968 0 0 1 0 6a6 6 0 0 1 6-6c1.4 0 2.685.484 3.706 1.287a16.056 16.056 0 0 0-8.419 8.419z"/>
</svg>
