<svg xmlns="http://www.w3.org/2000/svg" width="42.671" height="41.348">
    <path fill="#95E1D3" fill-rule="evenodd" d="M32 16.5a1.5 1.5 0 0 1-1.5 1.5 1.49 1.49 0 0 1-1.02-.406l-.003.004L16.038 4.159 16 4.122 2.554 17.569l-.001-.001a1.5 1.5 0 1 1-2.092-2.149L14.919.96C15.192.677 15.575.5 16 .5c.027 0 .053 0 .08.002l.012.001a.78.78 0 0 1 .068.006h.004c.367.04.694.212.933.468l.001-.001L23 6.878V5.5a1.5 1.5 0 1 1 3 0v4.378l5.598 5.598-.004.004c.25.268.406.625.406 1.02zM29 19v10.5a1.5 1.5 0 0 1-1.5 1.5h-3V19h-6v12h-14A1.5 1.5 0 0 1 3 29.5V19L16 6l13 13zm-15.5 0h-6v6h6v-6z"/>
</svg>
