<svg xmlns="http://www.w3.org/2000/svg" width="21.317" height="18.671">
    <path fill="#95E1D3" fill-rule="evenodd" d="M10.883.516c1.271-.023 1.948.44 2.594 1.03.549-.048 1.262-.354 1.682-.567l.408-.224c-.239.649-.565 1.156-1.065 1.541-.111.086-.221.201-.36.256v.007c.712-.007 1.3-.328 1.858-.502v.008c-.293.466-.69.938-1.113 1.277l-.513.407c.01.755-.011 1.474-.152 2.108-.82 3.685-2.992 6.186-6.43 7.257-1.235.385-3.23.544-4.645.192a11.898 11.898 0 0 1-1.93-.631c-.33-.145-.636-.3-.929-.479A22.252 22.252 0 0 1 0 12.02c.319.01.692.098 1.049.04.323-.051.639-.038.937-.103.742-.163 1.402-.378 1.97-.711.275-.161.693-.35.889-.582a2.792 2.792 0 0 1-.977-.176c-1.062-.375-1.68-1.064-2.082-2.1.321.035 1.248.119 1.465-.064-.405-.022-.794-.256-1.073-.431C1.324 7.359.627 6.462.633 5.083l.336.159c.214.091.433.139.689.192.108.022.324.086.448.039H2.09c-.165-.191-.435-.32-.601-.526C.941 4.265.428 3.217.753 1.969c.082-.317.213-.596.352-.854a.12.12 0 0 1 .016.008c.064.133.206.231.296.343.28.346.626.659.977.934 1.199.937 2.279 1.514 4.012 1.94.44.108.949.191 1.474.192-.148-.43-.1-1.126.016-1.541.292-1.046.927-1.8 1.858-2.204.222-.096.469-.166.728-.223.134-.016.267-.033.401-.048z"/>
</svg>
