<svg xmlns="http://www.w3.org/2000/svg" width="42.671" height="42.671">
    <path fill="#95E1D3" fill-rule="evenodd" d="M31.064 25.89l-14.47 5.987a1.489 1.489 0 0 1-1.188 0L.935 25.89A1.503 1.503 0 0 1 0 24.5v-23A1.5 1.5 0 0 1 2.073.114h.001l.002.001.013.005L16 5.877 29.911.12l.013-.005.002-.001A1.5 1.5 0 0 1 32 1.5v23c0 .628-.387 1.166-.936 1.39zM14.5 8.503L3 3.744v19.753l11.5 4.759V8.503zM29 3.744L17.5 8.503v19.753L29 23.497V3.744zm-9.121 6.89l5.5-2.5a1.5 1.5 0 0 1 1.242 2.731l-5.5 2.5a1.5 1.5 0 0 1-1.242-2.731zm0 5.501l5.5-2.501a1.5 1.5 0 0 1 1.242 2.731l-5.5 2.501v-.001a1.499 1.499 0 1 1-1.242-2.73zm0 5.499l5.5-2.5a1.5 1.5 0 0 1 1.242 2.731l-5.5 2.5a1.5 1.5 0 0 1-1.242-2.731zM6 8c.221 0 .431.048.621.134l5.5 2.5a1.501 1.501 0 0 1-1.242 2.731l-5.5-2.5A1.5 1.5 0 0 1 6 8zm0 5.5c.221 0 .431.048.621.134l5.5 2.501a1.5 1.5 0 1 1-1.242 2.73v.001l-5.5-2.501A1.5 1.5 0 0 1 6 13.5zM6 19c.221 0 .431.048.621.134l5.5 2.5a1.501 1.501 0 0 1-1.242 2.731l-5.5-2.5A1.5 1.5 0 0 1 6 19z"/>
</svg>
