<svg xmlns="http://www.w3.org/2000/svg" width="21.317" height="21.317">
    <path fill="#95E1D3" fill-rule="evenodd" d="M15.837 6.404a7.926 7.926 0 0 0-1.204-2.862A8.02 8.02 0 0 0 9.611.177a8.04 8.04 0 0 0-6.085 1.204 8.132 8.132 0 0 0-1.184.977A8.077 8.077 0 0 0 .629 4.901 7.929 7.929 0 0 0 0 8.014a7.906 7.906 0 0 0 .629 3.115 8.069 8.069 0 0 0 1.713 2.543 7.977 7.977 0 0 0 7.269 2.18 7.903 7.903 0 0 0 2.862-1.204 8.02 8.02 0 0 0 2.898-3.519A7.964 7.964 0 0 0 16 8.014a7.96 7.96 0 0 0-.163-1.61zM14.83 7.947c-.099-.022-2.411-.519-4.759-.224-.048-.117-.096-.235-.147-.353a21.085 21.085 0 0 0-.454-.991c2.698-1.101 3.794-2.686 3.806-2.704a6.8 6.8 0 0 1 1.554 4.272zm-2.317-5.059c-.017.026-.99 1.507-3.569 2.473A34.552 34.552 0 0 0 6.39 1.376a6.803 6.803 0 0 1 6.123 1.512zM6.364 1.381l-.002.001-.02.005c.007-.003.015-.004.022-.006zm-1.279.455a41.017 41.017 0 0 1 2.537 3.937c-3.281.871-6.128.837-6.308.833a6.84 6.84 0 0 1 3.771-4.77zM1.168 8.014c0-.072.003-.144.005-.216.121.003 3.497.08 7.015-.972.196.382.383.772.554 1.16a8.34 8.34 0 0 0-.269.082c-3.687 1.192-5.557 4.51-5.557 4.51s.002.001.002.003a6.811 6.811 0 0 1-1.75-4.567zM8 14.847a6.797 6.797 0 0 1-4.352-1.566c.09.073.153.12.153.12s1.31-2.857 5.362-4.268l.045-.014c.961 2.498 1.358 4.59 1.459 5.188a6.806 6.806 0 0 1-2.667.54zm3.818-1.165c-.07-.413-.434-2.417-1.33-4.88 2.206-.353 4.117.251 4.258.298a6.838 6.838 0 0 1-2.928 4.582z"/>
</svg>
