<svg xmlns="http://www.w3.org/2000/svg" width="21.317" height="19.994">
    <path fill="#95E1D3" fill-rule="evenodd" d="M13.5 3.717v2.44h-1v-2.44H10v-.998h2.5V.28h1v2.439H16v.998h-2.5zM6.585 1.246c.888.491 1.408 1.288 1.408 2.331 0 .876-.542 1.566-1.239 2.102-.681.522-.81.742-.81 1.186 0 .378.729 1.024 1.111 1.289 1.114.774 1.444 1.493 1.444 2.693 0 1.497-1.444 3.169-4.116 3.169-2.344 0-4.383-1.12-4.383-2.618 0-1.52 1.866-2.987 4.209-2.987.256 0 .49-.01.732-.01-.321-.307-.574-.687-.574-1.151 0-.275.089-.551.214-.785-.128.008-.258-.012-.392-.012-1.924 0-3.214-1.391-3.214-3.057C.975 1.765 2.756.263 4.648.263h4.22l-.945.983H6.585zM4.656 8.799c-1.62-.017-3.071.97-3.071 2.156 0 1.209 1.17 2.094 2.79 2.094 2.276 0 3.07-.823 3.07-2.032 0-.146-.018-.289-.052-.428-.178-.685-.808-1.024-1.688-1.624a3.596 3.596 0 0 0-1.049-.166zm1.819-5.203C6.288 2.194 5.207 1.068 4.12 1.037 3.033 1.006 2.304 2.078 2.492 3.48 2.68 4.883 3.713 6.046 4.8 6.077c1.087.032 1.863-1.079 1.675-2.481z"/>
</svg>
