<svg xmlns="http://www.w3.org/2000/svg" width="42.671" height="42.671">
    <path fill="#95E1D3" fill-rule="evenodd" d="M30.5 32h-29A1.5 1.5 0 0 1 0 30.499v-29A1.5 1.5 0 0 1 1.5 0h29A1.5 1.5 0 0 1 32 1.499v29A1.5 1.5 0 0 1 30.5 32zM29 3H3v26h26V3zM5.215 16.239v-.002l4-2.499v.001a1.497 1.497 0 0 1 1.625.035l.006-.008 6.631 4.42 7.638-5.391a1.5 1.5 0 0 1 1.763 2.425l.001.001-8.5 6h-.001c-.246.179-.55.284-.878.284-.321 0-.618-.1-.861-.272l-6.657-4.438-3.135 1.96a1.5 1.5 0 0 1-1.632-2.516z"/>
</svg>
