<svg xmlns="http://www.w3.org/2000/svg" width="30" height="30">
    <path fill="#95E1D3" fill-rule="evenodd" d="M30 23.999c0 .651-.419 1.2-1 1.407v1.683a1.498 1.498 0 0 1-.5 2.91c-.652 0-1.202-.42-1.408-1.001h-1.684A1.497 1.497 0 0 1 24 29.999c-.652 0-1.201-.42-1.408-1.001h-1.684a1.497 1.497 0 0 1-1.408 1.001c-.652 0-1.201-.42-1.408-1.001h-1.684A1.497 1.497 0 0 1 15 29.999c-.652 0-1.202-.42-1.408-1.001h-1.684a1.496 1.496 0 0 1-1.408 1.001c-.652 0-1.202-.42-1.408-1.001H7.408A1.497 1.497 0 0 1 6 29.999c-.652 0-1.201-.42-1.408-1.001H2.908A1.497 1.497 0 0 1 1.5 29.999a1.498 1.498 0 1 1-.5-2.91v-1.683c-.581-.207-1-.756-1-1.407 0-.654.419-1.202 1-1.409v-1.684c-.581-.207-1-.756-1-1.408 0-.651.419-1.202 1-1.408v-1.684c-.581-.206-1-.755-1-1.407a1.5 1.5 0 0 1 1-1.41v-1.683c-.581-.206-1-.755-1-1.408 0-.652.419-1.202 1-1.407V7.406c-.581-.207-1-.756-1-1.408 0-.652.419-1.202 1-1.408V2.905C.419 2.7 0 2.15 0 1.498A1.5 1.5 0 0 1 1.5-.001c.652 0 1.201.417 1.408 1h1.684c.207-.583.756-1 1.408-1 .652 0 1.201.417 1.408 1h1.684a1.493 1.493 0 0 1 2.816 0h1.684c.206-.583.756-1 1.408-1 .652 0 1.201.417 1.408 1h1.684c.207-.583.756-1 1.408-1 .652 0 1.201.417 1.408 1h1.684c.207-.583.756-1 1.408-1 .652 0 1.201.417 1.408 1h1.684c.206-.583.756-1 1.408-1 .828 0 1.5.67 1.5 1.499 0 .652-.419 1.202-1 1.407V4.59c.581.206 1 .756 1 1.408 0 .652-.419 1.201-1 1.408v1.685c.581.205 1 .755 1 1.407 0 .653-.419 1.202-1 1.408v1.683a1.5 1.5 0 0 1 1 1.41c0 .652-.419 1.201-1 1.407v1.684c.581.206 1 .757 1 1.408 0 .652-.419 1.201-1 1.408v1.684c.581.207 1 .755 1 1.409zM26 3.997H4v22.001h22V3.997zM13 19.998l7-8.499 4.5 7v5.999h-19l6-5.999 1.5 1.499zm-3-7a3 3 0 1 1 0-6 3 3 0 0 1 0 6z"/>
</svg>
